<?xml version="1.0" encoding="UTF-8"?>
<svg id="Layer_1" data-name="Layer 1" xmlns="http://www.w3.org/2000/svg" viewBox="0 0 115.28 23.52">
  <defs>
    <style>
      .cls-1 {
        stroke: #231f20;
        stroke-miterlimit: 10;
      }

      .cls-1, .cls-2 {
        fill: #fff;
      }

      .cls-3, .cls-4, .cls-5, .cls-2 {
        stroke-width: 0px;
      }

      .cls-4 {
        fill: #231f20;
      }

      .cls-5 {
        fill: #bcbec0;
      }
    </style>
  </defs>
  <polygon class="cls-1" points="113.54 11.89 113.54 22.22 1.29 22.22 1.29 1.78 104.01 1.78 113.54 11.89"/>
  <g>
    <path class="cls-3" d="M9.29,16.82c-.99,0-1.77-.22-2.34-.66-.48-.37-.72-.79-.72-1.27,0-.25.07-.45.22-.61s.35-.24.62-.24c.35,0,.61.18.77.54.22.48.73.72,1.51.72.67,0,1.32-.15,1.95-.44.65-.3.98-.63.98-.99,0-.49-.2-.82-.61-.97-.29-.11-.87-.18-1.74-.2-.68-.02-1.28-.14-1.82-.38-.72-.32-1.08-.79-1.07-1.39.01-.76.42-1.46,1.22-2.09s1.68-.95,2.65-.95c.38,0,.86.09,1.42.26.7.22,1.05.47,1.05.76,0,.2-.07.38-.21.54-.16.18-.36.26-.6.26-.18,0-.46-.04-.82-.12s-.64-.12-.83-.12c-.5,0-.98.12-1.44.36-.47.24-.7.51-.7.79,0,.15.07.27.21.37s.36.16.64.2c.5.03,1,.05,1.49.08.87.07,1.55.31,2.06.73.55.47.83,1.12.83,1.95,0,1.01-.57,1.77-1.72,2.29-.88.39-1.88.59-3,.59Z"/>
    <path class="cls-3" d="M16.6,11.1c.29-.28.59-.49.92-.63s.67-.21,1.05-.21c.67,0,1.15.19,1.44.56.22.28.35.71.4,1.29.02.48.04.96.06,1.45.06.63.1,1.01.12,1.15.05.43.12.81.2,1.14.02.08.03.15.03.22,0,.22-.08.4-.25.54s-.36.21-.58.21c-.39,0-.65-.2-.77-.59-.09-.32-.18-.76-.26-1.34-.07-.55-.11-1-.11-1.36,0-.1,0-.25.01-.44s.01-.34.01-.44c0-.29,0-.46-.01-.5-.04-.21-.14-.32-.3-.32-.43,0-.83.2-1.18.6-.18.2-.43.58-.74,1.14,0,1.41-.07,2.27-.21,2.55-.15.32-.39.48-.73.48-.22,0-.41-.07-.58-.22s-.25-.33-.25-.54c0-.07.02-.18.06-.31.03-.09.05-.61.07-1.58-.02-.79-.02-2.09.01-3.92v-.19c.04-.46.05-.77.05-.93,0-.12-.02-.3-.06-.54s-.06-.42-.06-.54c0-.22.08-.41.24-.55s.35-.21.58-.21c.39,0,.65.21.78.62.07.23.11.59.11,1.08,0,.39-.01.79-.04,1.19-.02.38-.04.76-.04,1.14Z"/>
    <path class="cls-3" d="M26.7,12.24c-.04.6-.31.9-.81.9s-.74-.25-.74-.76l-.03-.59c-.88.14-1.51.59-1.89,1.35v2.95c0,.22-.07.41-.22.55s-.35.22-.58.22-.43-.08-.56-.23c-.12-.14-.19-.32-.19-.54v-3.84c0-.12,0-.3.01-.54s.01-.42.01-.54c0-.22.07-.4.2-.55s.32-.22.56-.22c.43,0,.69.22.77.67.69-.52,1.46-.77,2.3-.77.78,0,1.17.52,1.17,1.56,0,.2,0,.33,0,.39Z"/>
    <path class="cls-3" d="M29.39,13.71c0,.22,0,.58.02,1.07s.02.85.02,1.07-.08.41-.23.56-.35.22-.58.22-.43-.07-.58-.22-.23-.33-.23-.56,0-.58-.02-1.07-.02-.85-.02-1.07c0-.35.02-.78.06-1.31s.06-.96.06-1.31c0-.23.08-.41.23-.56s.35-.22.58-.22.43.07.58.22.23.33.23.56c0,.35-.02.78-.06,1.31s-.06.96-.06,1.31ZM28.89,9.42c-.25,0-.47-.08-.65-.25s-.28-.37-.28-.62.09-.45.28-.62.4-.25.65-.25.47.08.65.25.27.37.27.62-.09.45-.27.62-.4.25-.65.25Z"/>
    <path class="cls-3" d="M35.54,16.88c-.48,0-.75-.24-.8-.71-.05-.4-.11-.81-.16-1.21-.06-.43-.09-.83-.09-1.21,0-.1,0-.28.02-.52s.02-.42.02-.52c0-.03,0-.1.01-.21s.01-.2.01-.27c0-.32-.08-.49-.23-.49-.33,0-.66.22-.98.65s-.57.98-.76,1.64c0,.13-.02.31-.05.53-.02.18-.03.36-.03.53,0,.11-.01.28-.04.51-.03.23-.04.4-.04.51,0,.23-.08.42-.23.57-.15.15-.35.23-.58.23s-.43-.07-.58-.22c-.15-.15-.23-.34-.23-.56,0-.11-.01-.28-.04-.5-.02-.22-.04-.39-.04-.5,0-.38.03-.91.08-1.59s.08-1.21.08-1.59c0-.12,0-.3-.02-.53s-.02-.41-.02-.53c0-.22.08-.41.24-.55s.35-.22.58-.22c.51,0,.79.31.82.92v.06c.58-.57,1.18-.86,1.81-.86.74,0,1.25.31,1.53.93.19.41.28,1.03.28,1.86v.42c0,.18,0,.31,0,.38,0,.3.04.7.13,1.18s.13.87.13,1.17c0,.22-.08.4-.23.54s-.35.22-.58.22Z"/>
    <path class="cls-3" d="M42.13,16.7c-.31,0-.54-.15-.7-.45-.19-.36-.48-.78-.86-1.26-.59-.75-.91-1.15-.94-1.2-.31.23-.57.41-.77.53-.04.54-.06,1.06-.06,1.56,0,.23-.08.41-.23.56s-.35.22-.58.22c-.55,0-.83-.33-.83-.98,0-.31.02-.77.07-1.39s.07-1.08.07-1.39c0-.57,0-1.21.03-1.94s.03-1.37.03-1.93c0-.17,0-.37-.03-.59s-.03-.43-.03-.59c0-.23.08-.41.23-.56s.35-.22.58-.22.43.07.58.22.23.33.23.56c0,.17,0,.38.03.61s.03.44.03.61c0,.46-.01,1.02-.04,1.65-.02.61-.03,1.15-.03,1.63.53-.41,1.34-1.16,2.43-2.24.17-.17.37-.26.59-.26s.41.08.58.24.25.35.25.56c0,.18-.08.35-.23.52-.46.52-1.01,1.05-1.65,1.62l1.22,1.57c.59.79.88,1.31.88,1.57,0,.21-.09.4-.26.55s-.37.23-.59.23Z"/>
    <path class="cls-3" d="M55.36,9.23c-.2.41-.6,1.3-1.2,2.66-.5,1.14-.93,2.04-1.28,2.68-.61,1.12-.94,1.72-.98,1.79-.23.34-.5.51-.8.51-.21,0-.4-.07-.57-.21-.18-.16-.27-.35-.27-.58,0-.19.41-1,1.22-2.41-.3-.43-.73-1.09-1.29-1.97-.42-.65-1.04-1.63-1.86-2.94-.08-.13-.12-.27-.12-.42,0-.23.09-.42.26-.57.16-.14.36-.22.57-.22.26,0,.49.13.7.39l.44.7s.36.62,1.01,1.71c.41.7.77,1.25,1.08,1.66.3-.6.72-1.5,1.28-2.71.12-.27.29-.68.53-1.22.15-.35.4-.53.76-.53.21,0,.4.07.57.21.18.15.27.34.27.57,0,.13-.11.43-.34.9Z"/>
    <path class="cls-3" d="M58.92,16.81c-.72,0-1.34-.25-1.86-.74-.57-.54-.87-1.27-.9-2.17-.03-.86.21-1.63.71-2.31.59-.8,1.42-1.2,2.48-1.2.78,0,1.4.31,1.86.94.41.56.62,1.26.62,2.09,0,.91-.24,1.68-.73,2.32-.54.71-1.27,1.07-2.19,1.07ZM59.27,11.93c-.48,0-.86.21-1.14.66-.23.37-.35.8-.35,1.3,0,.47.13.83.4,1.08.21.2.46.3.74.3.34,0,.63-.12.88-.35.29-.27.44-.63.46-1.1.05-1.26-.28-1.89-.99-1.89Z"/>
    <path class="cls-3" d="M67.95,13.07c0,.26,0,.66,0,1.18s0,.92,0,1.18c0,.08,0,.2.02.37s.02.28.02.37c0,.22-.08.4-.24.54s-.35.21-.58.21c-.32,0-.56-.15-.71-.44-.5.18-1.02.28-1.55.28s-1.02-.12-1.4-.35c-.43-.27-.68-.66-.76-1.17-.15-.97-.23-1.84-.23-2.6,0-.51.06-1.08.18-1.73.08-.44.34-.66.79-.66.23,0,.42.07.58.21s.24.32.24.54c0,.17-.03.44-.08.8-.06.36-.08.64-.08.83,0,.55.02,1.02.06,1.43s.09.75.17,1.02c.1.04.19.08.28.1.09.02.18.03.27.03.43,0,.91-.06,1.43-.19,0-.3,0-.64,0-1.03,0-.46-.01-.79-.01-.98,0-.8.04-1.49.11-2.07.06-.46.32-.7.8-.7.23,0,.43.07.59.22s.24.33.23.54c-.07,1.49-.11,2.18-.11,2.06Z"/>
    <path class="cls-3" d="M73.97,12.24c-.04.6-.31.9-.81.9s-.74-.25-.74-.76l-.03-.59c-.88.14-1.51.59-1.89,1.35v2.95c0,.22-.07.41-.22.55s-.35.22-.58.22-.43-.08-.56-.23c-.12-.14-.19-.32-.19-.54v-3.84c0-.12,0-.3.01-.54s.01-.42.01-.54c0-.22.07-.4.2-.55s.32-.22.56-.22c.43,0,.69.22.77.67.69-.52,1.46-.77,2.3-.77.78,0,1.17.52,1.17,1.56,0,.2,0,.33,0,.39Z"/>
    <path class="cls-3" d="M81.85,13.19c-.07,0-.23-.01-.49-.04-.02.55-.04,1.45-.04,2.7,0,.21-.07.38-.22.53s-.33.22-.55.22-.41-.07-.55-.22-.22-.33-.22-.53v-1.63c0-.61.04-1.5.12-2.69.07-1.21.11-2.11.12-2.7,0-1.02.29-1.5.86-1.46.13-.04.32-.06.55-.08s.52-.03.86-.03c.77,0,1.48.25,2.16.74.75.55,1.12,1.23,1.12,2.03,0,1-.4,1.79-1.19,2.38-.7.52-1.54.78-2.51.78ZM82.14,8.77c-.12,0-.24,0-.33,0s-.18,0-.24.01c0,.18,0,.46,0,.83,0,.43-.04,1.11-.11,2.03.2.03.33.05.4.05.61,0,1.12-.14,1.52-.43.43-.31.64-.72.64-1.22,0-.33-.2-.63-.6-.88-.39-.25-.81-.38-1.27-.38Z"/>
    <path class="cls-3" d="M91.48,16.78c-.18,0-.46-.17-.86-.52-.36.17-.68.3-.95.39s-.51.13-.7.13c-.94,0-1.65-.25-2.12-.76s-.71-1.26-.71-2.26c0-.94.35-1.75,1.04-2.42s1.53-1,2.5-1c.37,0,.8.1,1.29.31.59.25.88.54.88.88,0,.14-.04.26-.13.37-.04.15-.07.35-.09.58-.02.23-.03.51-.03.82,0,.74.05,1.27.16,1.6.01.03.1.24.27.6.15.33.23.52.23.57,0,.2-.08.38-.24.51s-.34.2-.55.2ZM90.02,12.83c0-.12,0-.27.03-.43s.04-.34.08-.54c-.08-.04-.15-.07-.21-.08s-.11-.03-.16-.03c-.53,0-1,.21-1.39.62s-.6.9-.6,1.44.09.92.28,1.18.47.4.84.4c.24,0,.47-.04.69-.12s.42-.2.61-.35c-.12-.93-.18-1.62-.18-2.09Z"/>
    <path class="cls-3" d="M94.92,13.71c0,.22,0,.58.02,1.07s.02.85.02,1.07-.08.41-.23.56-.35.22-.58.22-.43-.07-.58-.22-.23-.33-.23-.56,0-.58-.02-1.07-.02-.85-.02-1.07c0-.35.02-.78.06-1.31s.06-.96.06-1.31c0-.23.08-.41.23-.56s.35-.22.58-.22.43.07.58.22.23.33.23.56c0,.35-.02.78-.06,1.31s-.06.96-.06,1.31ZM94.42,9.42c-.25,0-.47-.08-.65-.25s-.28-.37-.28-.62.09-.45.28-.62.4-.25.65-.25.47.08.65.25.27.37.27.62-.09.45-.27.62-.4.25-.65.25Z"/>
    <path class="cls-3" d="M101.07,16.88c-.48,0-.75-.24-.8-.71-.05-.4-.11-.81-.16-1.21-.06-.43-.09-.83-.09-1.21,0-.1,0-.28.02-.52s.02-.42.02-.52c0-.03,0-.1.01-.21s.01-.2.01-.27c0-.32-.08-.49-.23-.49-.33,0-.66.22-.98.65-.32.43-.57.98-.76,1.64,0,.13-.02.31-.05.53-.02.18-.03.36-.03.53,0,.11-.01.28-.04.51-.03.23-.04.4-.04.51,0,.23-.08.42-.23.57-.15.15-.35.23-.58.23s-.43-.07-.58-.22c-.15-.15-.23-.34-.23-.56,0-.11-.01-.28-.04-.5-.02-.22-.04-.39-.04-.5,0-.38.03-.91.08-1.59s.08-1.21.08-1.59c0-.12,0-.3-.02-.53s-.02-.41-.02-.53c0-.22.08-.41.24-.55s.35-.22.58-.22c.51,0,.79.31.82.92v.06c.58-.57,1.18-.86,1.81-.86.74,0,1.25.31,1.53.93.19.41.28,1.03.28,1.86v.42c0,.18,0,.31,0,.38,0,.3.04.7.13,1.18s.13.87.13,1.17c0,.22-.08.4-.23.54s-.35.22-.58.22Z"/>
  </g>
  <g>
    <polygon class="cls-5" points="104.32 11.5 104.32 2.55 112.82 11.5 104.32 11.5"/>
    <path class="cls-4" d="M104.82,3.8l6.84,7.2h-6.84V3.8M103.82,1.3v10.7h10.17l-10.17-10.7h0Z"/>
  </g>
  <g>
    <rect class="cls-5" x="104.45" y="13.36" width="3.47" height="6.93"/>
    <path class="cls-4" d="M107.42,13.86v5.93h-2.47v-5.93h2.47M108.42,12.86h-4.47v7.93h4.47v-7.93h0Z"/>
  </g>
  <rect class="cls-2" x="105.24" y="17.56" width="1.89" height="1.89"/>
</svg>